<svg width="702" height="465" xmlns="http://www.w3.org/2000/svg" xmlns:xlink="http://www.w3.org/1999/xlink"><defs><path d="M180.49 1.563L57.198 33.031a16.813 16.813 0 0 0-11.86 11.184L.141 186.026v1.776l120.03 30.167 8.155-29.259 16.811 8.916 201.621-51.299V48.086a16.814 16.814 0 0 0-12.487-16.246L217.913.867l-37.423.696z" id="a"/><path d="M180.49 1.563L57.198 33.031a16.813 16.813 0 0 0-11.86 11.184L.141 186.026v1.776l120.03 30.167 8.155-29.259 16.811 8.916 201.621-51.299V48.086a16.814 16.814 0 0 0-12.487-16.246L217.913.867l-37.423.696z" id="c"/><path d="M93.654.954L37.53 28.361A52.118 52.118 0 0 0 8.532 70.082L.95 146.986s9.316 131.716 8.318 140.999c-.998 9.282 236.545-5.833 236.545-5.833L232.269 72.981a52.124 52.124 0 0 0-28.521-43.159L146.571.954H93.654z" id="e"/><linearGradient x1="50%" y1="0%" x2="50%" y2="100%" id="g"><stop stop-color="#EAEAF0" offset="0%"/><stop stop-color="#C6C6CD" offset="100%"/></linearGradient><path id="h" d="M0 1h696.42v2H0z"/></defs><g fill="none" fill-rule="evenodd"><path d="M336.135 129.66l-37.29.695-122.85 31.355a16.754 16.754 0 0 0-11.818 11.145l-45.035 141.303v1.77l119.6 30.059 8.126-29.153 16.75 8.883 200.9-51.116v-97.89a16.752 16.752 0 0 0-12.442-16.187L336.135 129.66z" fill="#5656CE"/><path fill="#FFF" d="M297.157 132.838l23.158 140.903 20.396-15.94-3.163-125.714z"/><path d="M320.413 62.977l-23.257 69.861 13.205 11.025a17.214 17.214 0 0 0 27.94-9.981l5.171-27.052-23.059-43.853z" fill="#FEB07D"/><path d="M372.06 55.568s4.428 62.01-8.92 62.772c-11.874.68-34.282-7.068-34.282-7.068l-8.444-48.295 51.646-7.409z" fill="#FEB07D"/><path fill="#09293D" d="M325.133 108.655l13.74 22.24 2.992-15.657zM350.93 93.11a1 1 0 0 1-.173-1.985l6.74-1.185-4.45-11.757a1 1 0 0 1 1.871-.708l4.876 12.886a1 1 0 0 1-.762 1.339l-7.929 1.395c-.059.01-.116.015-.174.015"/><path d="M309.905 94.543c4.7 0 8.814-3.158 10.028-7.7l6.383-23.865s51.863 2.504 53.443-2.6c13.846-44.733-43.62-23.133-59.932-14.676a8.857 8.857 0 0 0-4.706 6.779l-5.216 42.062z" fill="#FD7E14"/><path d="M342.668 67.663h-9.031a1 1 0 0 1 0-2h9.03a1 1 0 1 1 0 2m26.511-9.445h-9.031a1 1 0 1 1 0-2h9.03a1 1 0 1 1 0 2m-28.751 18.549a1.522 1.522 0 1 1-3.044 0 1.522 1.522 0 0 1 3.044 0m25.758 0a1.523 1.523 0 1 1-3.045-.001 1.523 1.523 0 0 1 3.045.001" fill="#09293D"/><path d="M320.413 86.639s-10.685-12.311-5.163-15.95c5.522-3.638 13.608 6.078 13.608 6.078l-8.445 9.872z" fill="#FEB07D"/><path d="M320.413 68.86h-.039a.999.999 0 0 1-.8-.458l-2.734-4.23-1.519 3.693a.997.997 0 0 1-1.304.545.998.998 0 0 1-.545-1.304l2.245-5.465a.999.999 0 0 1 1.765-.162l2.998 4.641 2.851-3.748a1 1 0 1 1 1.592 1.211l-3.714 4.882a.998.998 0 0 1-.796.395" fill="#FFA94D"/><path d="M318.843 79.831a1 1 0 0 1 0-2c1.18 0 2.14-.96 2.14-2.14a1 1 0 0 1 2 0 4.144 4.144 0 0 1-4.14 4.14M311.95 264.21a1 1 0 0 1-.93-.63l-25.472-64.225a1.002 1.002 0 0 1 .093-.916l7.928-12.105-13.39-17.151a1 1 0 0 1-.122-1.028l16.189-35.73a.999.999 0 1 1 1.821.825l-15.938 35.179 13.457 17.239a1 1 0 0 1 .049 1.163l-8.036 12.269 25.28 63.74a1 1 0 0 1-.93 1.37m13.815 0a1 1 0 0 1-.934-1.357l24.408-63.777-7.184-12.288a1 1 0 0 1 .075-1.12l13.448-17.228-15.921-33.247a1 1 0 1 1 1.804-.864l16.189 33.806c.163.343.119.748-.114 1.048l-13.413 17.18 7.084 12.117c.154.263.179.58.07.864L326.7 263.568a1 1 0 0 1-.934.642" fill="#09293D"/><g transform="translate(119 129.22)"><mask id="b" fill="#fff"><use xlink:href="#a"/></mask><path d="M182.188 307.562l71.456-.044-90.649-211.945a30.911 30.911 0 0 0-28.42-18.756h-1.276a39.188 39.188 0 0 1-.05-.231 1.064 1.064 0 0 0-1.267-.803c-.493.109-.808.549-.809 1.034h-16.198l-2.358-14.758h36.74S128.7 44.533 131.191-6.33l-3.11-.008c4.888-.027 8.006-.086 7.872-.195.005-24.277-23.858-40.758-56.847-30.743C46.118-27.262 48.483 24.21 48.483 24.21v37.849h33.495l1.632 14.758H58.061a46.493 46.493 0 0 0-42.965 28.727l-57.618 139.355c-3.946 9.831-4.213 19.941-1.678 29.105l.02.072c.268.961.565 1.911.894 2.848l.007.022a46.3 46.3 0 0 0 13.476 19.744 45.052 45.052 0 0 0 19.647 9.855c.018.22.032.351.034.371a1.062 1.062 0 0 0 1.18.928c.476-.056.825-.426.902-.876.52.09 1.04.176 1.564.248.352.049.706.09 1.06.13.571.067 1.146.12 1.726.165.305.023.608.05.916.068.89.05 1.785.085 2.692.085h173.408l-.017-.019h8.88v-.083z" fill="#3E3EB0" mask="url(#b)"/></g><g transform="translate(119 129.22)"><mask id="d" fill="#fff"><use xlink:href="#c"/></mask><path d="M379.877 105.668a48.29 48.29 0 0 0-26.424-39.988l-52.047-26.279a1.044 1.044 0 0 0-.255-1.288 1.04 1.04 0 0 0-.673-.225V-1.683a67.645 67.645 0 0 0 1.058-3.15c.237.066.485.1.745.1 4.107 0 9.648-8.48 9.648-12.587a7.436 7.436 0 0 0-7.42-7.436c.018-1.145.048-2.253.076-3.328 0 0 10.14-35.522-25.246-36.426-43.362-1.11-31.086 36.389-31.086 36.389l.014-.002-.008.606h-.006v1.098l-.001 1.663a7.436 7.436 0 0 0-7.435 7.436c0 4.107 5.54 12.588 9.648 12.588.35 0 .673-.082.982-.199 0 .006.003.011.005.018h-.002v42.798c-.244 0-.49.073-.69.242-.375.32-.452.84-.246 1.264L199.45 64.326a48.291 48.291 0 0 0-26.867 38.655l-7.025 71.251s8.63 122.039 7.707 130.638c-.925 8.6 219.16-5.404 219.16-5.404l-12.55-193.798z" fill="#3E3EB0" mask="url(#d)"/></g><path d="M352.283 107.944c-6.327 0-9.494-4.535-9.637-4.745a1 1 0 0 1 1.652-1.129c.133.193 3.26 4.598 9.554 3.77a.999.999 0 1 1 .262 1.982c-.637.083-1.248.122-1.83.122" fill="#09293D"/><path d="M80.603 183.61a4.103 4.103 0 0 0-4.098 4.098 4.103 4.103 0 0 0 4.098 4.097 4.103 4.103 0 0 0 4.098-4.097 4.103 4.103 0 0 0-4.098-4.098m0 10.195a6.105 6.105 0 0 1-6.098-6.097 6.105 6.105 0 0 1 6.098-6.098 6.105 6.105 0 0 1 6.098 6.098 6.105 6.105 0 0 1-6.098 6.097m517.003 40.945a6.825 6.825 0 0 0-6.817 6.818 6.825 6.825 0 0 0 6.817 6.818 6.826 6.826 0 0 0 6.818-6.818 6.825 6.825 0 0 0-6.818-6.817m0 15.635c-4.862 0-8.817-3.955-8.817-8.818 0-4.862 3.955-8.817 8.817-8.817s8.818 3.955 8.818 8.817c0 4.863-3.956 8.818-8.818 8.818" fill="#C3C3FF"/><path d="M39.22 353.606a.999.999 0 0 1-.368-1.93l5.521-2.178a.998.998 0 1 1 .735 1.858l-5.52 2.18a.972.972 0 0 1-.368.07" fill="#5656CE"/><path d="M44.741 405.614a.999.999 0 0 1-.368-1.929l5.521-2.179a.999.999 0 1 1 .735 1.858l-5.52 2.18a.972.972 0 0 1-.368.07" fill="#FFF"/><path d="M397.715 11.808a1 1 0 0 1-.941-1.337l3.505-9.807a1 1 0 1 1 1.883.673l-3.506 9.807a1 1 0 0 1-.941.664" fill="#5656CE"/><path d="M200.316 33.41a.997.997 0 0 1-.819-.425l-4.72-6.721a1 1 0 1 1 1.636-1.15l4.72 6.72a1 1 0 0 1-.817 1.576" fill="#C3C3FF"/><path d="M693.509 332.934a1 1 0 0 1-.954-1.3l6.81-21.645a1.002 1.002 0 0 1 1.909.6l-6.811 21.645a1 1 0 0 1-.954.7" fill="#09293D"/><path fill="#132042" d="M323.971 147l10.902 10.544-7.466 13.66-12.473-11.181z"/><path fill="#132042" d="M300.012 293.116l27.326-129.79 30.367 129.112-28.507 29.186z"/><path fill="#FEB07D" d="M404.654 173.173h52.917v-47.325h-52.917z"/><path fill="#09293D" d="M457.571 167.262l-26.458-15.643-26.459-40.819h52.917z"/><path d="M401.204 106.44c0-17.946-.849-28.491 30.35-28.491 34.733 0 30.35 10.545 30.35 28.492 0 15.287-7.699 38.779-20.98 45.138-2.31 1.107-16.44 1.498-19.291-.221-12.356-7.445-20.43-30.335-20.43-44.917" fill="#FEB07D"/><path d="M435.468 119.34a1 1 0 0 1-.986-.841l-2.743-17.088a1 1 0 0 1 1.975-.316l2.742 17.088a.998.998 0 0 1-.988 1.158m-15.71-16.067h-7.275a1 1 0 1 1 0-2h7.275a1 1 0 1 1 0 2m33.569 0h-7.276a1 1 0 1 1 0-2h7.276a1 1 0 1 1 0 2m-35.653 4.782a1.226 1.226 0 1 1-2.452 0 1.226 1.226 0 0 1 2.452 0m33.569 0a1.226 1.226 0 1 1-2.453 0 1.226 1.226 0 0 1 2.453 0" fill="#09293D"/><path d="M409.23 112.457c0 4.433-1.207 13.586-5.639 13.586-4.433 0-10.413-9.153-10.413-13.586a8.025 8.025 0 1 1 16.051 0" fill="#FEB07D"/><path d="M397.047 116.953a1 1 0 0 1-.987-.844c-1.152-7.313 2.189-8.652 2.573-8.78a1 1 0 0 1 .664 1.886c-.096.045-2.13 1.077-1.261 6.582a1 1 0 0 1-.99 1.156" fill="#09293D"/><path d="M453.879 112.457c0 4.433 1.206 13.586 5.638 13.586 4.433 0 10.414-9.153 10.414-13.586a8.026 8.026 0 0 0-16.052 0" fill="#FEB07D"/><path d="M466.06 116.953a1 1 0 0 1-.988-1.156c.884-5.609-1.242-6.574-1.265-6.583-.495-.209-.756-.779-.566-1.282a.982.982 0 0 1 1.234-.603c.384.128 3.725 1.467 2.571 8.78a1 1 0 0 1-.986.844m-62.573-16.232s.892-2.802 1.72-6.936a133.291 133.291 0 0 1 1.854-7.901s15.288 16.581 50.51.897c-.083 0-1.52 10.976 1.902 14.06h2.531S472.95 62.5 434.756 61.523c-46.803-1.197-33.553 39.276-33.553 39.276l2.284-.078zm-2.284 1.915h2.239v-1.185h-2.239zm0 1.796h2.239v-1.186h-2.239zm58.394-1.796h2.239v-1.185h-2.239zm0 1.796h2.239v-1.186h-2.239zm-28.939 33.61c-6.229 0-9.3-4.818-9.435-5.034a1 1 0 0 1 1.7-1.058c.126.201 2.957 4.545 8.632 4.053a.987.987 0 0 1 1.082.911 1 1 0 0 1-.91 1.082c-.366.031-.723.046-1.069.046" fill="#09293D"/><path d="M514.748 202.042l-57.177-28.87h-52.917l-56.124 27.409a52.12 52.12 0 0 0-28.998 41.72l-7.582 76.905s9.316 131.717 8.318 140.999c-.998 9.282 236.545-5.833 236.545-5.833L543.269 245.2a52.124 52.124 0 0 0-28.521-43.16" fill="#29B16A"/><g transform="translate(311 172.22)"><mask id="f" fill="#fff"><use xlink:href="#e"/></mask><path fill="#FFF" mask="url(#f)" d="M-13.84 22.663h270.126V12.645H-13.84zm0 28.146h270.126V40.79H-13.84zm0 28.147h270.126v-10.02H-13.84zm0 28.145h270.126V97.082H-13.84zm0 28.147h270.126v-10.02H-13.84zm0 28.145h270.126v-10.019H-13.84zm0 28.147h270.126v-10.02H-13.84zm0 28.145h270.126v-10.019H-13.84zm0 28.147h270.126v-10.02H-13.84z"/></g><g><path fill="#FEB07D" d="M404.654 172.173l26.988 32.548 25.929-32.548z"/><path d="M361.606 372.177h-.032a1.002 1.002 0 0 1-.969-1.032l3.352-107.965c.017-.553.482-1.035 1.031-.97.552.018.985.48.97 1.032l-3.353 107.965c-.018.54-.462.97-.999.97m140.338-79.512a1 1 0 0 1-.998-.958l-1.497-35.85a.998.998 0 0 1 .957-1.04c.552-.037 1.017.406 1.041.956l1.497 35.85a.998.998 0 0 1-.957 1.04c-.015.002-.028.002-.043.002" fill="#09293D"/><path fill="#FFF" d="M460.386 269.303l11.848-11.502 11.734 11.502z"/><path fill="#FFF" d="M471.444 269.303l8.948-8.688 8.862 8.688z"/><path d="M494.762 270.302h-36.298a1 1 0 1 1 0-2h36.298a1 1 0 1 1 0 2m-63.121-64.58c-.292 0-.569-.129-.76-.35l-26.988-31.549a1 1 0 0 1 1.52-1.3l26.212 30.642 25.173-30.627a1 1 0 0 1 1.545 1.27l-25.93 31.548a1.003 1.003 0 0 1-.762.366h-.01zm2.989-145.069h-.031a1.002 1.002 0 0 1-.74-.365l-1.905-2.316a1 1 0 0 1 1.545-1.27l1.18 1.436 4.33-4.618a1 1 0 1 1 1.459 1.368l-5.108 5.449a.998.998 0 0 1-.73.316m-2.247 89.221a1 1 0 0 1-1-1v-3.746a1 1 0 1 1 2 0v3.746a1 1 0 0 1-1 1" fill="#09293D"/><path d="M460.29 91.891a1 1 0 0 1-.473-1.882l3.23-1.725a1 1 0 1 1 .943 1.763l-3.228 1.726c-.151.08-.312.118-.471.118m-.001 5.254a1 1 0 0 1-.473-1.882l3.23-1.725a.999.999 0 1 1 .943 1.763l-3.228 1.726c-.151.08-.312.118-.471.118m-61.34-5.254a1 1 0 0 1-.473-1.882l3.228-1.725a1 1 0 1 1 .943 1.763l-3.227 1.726c-.151.08-.312.118-.471.118m0 5.254a1 1 0 0 1-.473-1.882l3.228-1.725a1 1 0 1 1 .943 1.763l-3.227 1.726c-.151.08-.312.118-.471.118" fill="#18556D"/><path d="M216.996 214.062h58.352a33.36 33.36 0 0 1 30.674 20.243l97.841 228.758-252.718.156s10.634-139.062 12.511-140.448c1.876-1.386 53.34-108.709 53.34-108.709" fill="#FFE99A"/><path d="M217.179 214.062h-24.414a50.178 50.178 0 0 0-46.372 31.006l-62.19 150.408c-13.015 32.43 10.864 67.743 45.808 67.743h139.062V446.33L157.1 408.172l31.46-83.822 28.618-110.288z" fill="#FFE99A"/><path fill="#09293D" d="M297.16 446.107l2.212 17.093h27.366v-7.35l-15.481-8.445z"/><path d="M276.618 446.87l31.094-9.22 6.685 6.1a4.072 4.072 0 0 1-4.831 1.377l-3.379-1.377-7.83 4.675 5.68.406 13.136 14.389h-59.426l11.325-16.89 7.546.54z" fill="#C37362"/><path d="M120.311 462.278c3.118.613 6.356.941 9.7.941h139.061V446.33L157.1 408.172s-38.167 5.005-36.789 54.106" fill="#C37362"/><path d="M253.725 320.63c-36.244 0-55.105-102.931-55.913-107.443a1 1 0 0 1 1.969-.352c.2 1.118 20.474 111.852 56.966 105.532 5.426-.94 9.884-3.967 13.25-8.998 17.08-25.513 1.981-94.396 1.827-95.09a1 1 0 1 1 1.952-.434c.638 2.862 15.435 70.416-2.117 96.637-3.683 5.503-8.585 8.819-14.57 9.855a19.68 19.68 0 0 1-3.364.294" fill="#09293D"/><path d="M208.753 231.965a5.865 5.865 0 1 1-11.731-.001 5.865 5.865 0 0 1 11.73 0m73.368.001a5.865 5.865 0 1 1-11.73 0 5.865 5.865 0 0 1 11.73 0m-66.049 23.926a7.318 7.318 0 1 1-14.637 0 7.318 7.318 0 0 1 14.637 0M286.477 259a7.318 7.318 0 1 1-14.637 0 7.318 7.318 0 0 1 14.637 0m-57.196 24.572c0 5.291-4.29 9.581-9.582 9.581a9.58 9.58 0 0 1-9.58-9.58 9.582 9.582 0 0 1 19.163 0m59.458 4.064a9.582 9.582 0 1 1-19.163 0 9.582 9.582 0 0 1 19.164 0m-20.809 31.445c0 7.098-5.755 12.852-12.854 12.852-7.097 0-12.852-5.754-12.852-12.852 0-7.1 5.755-12.853 12.852-12.853 7.1 0 12.854 5.754 12.854 12.853" fill="#FFD43B"/><path d="M120.31 463.278a1 1 0 0 1-.992-.88c-.051-.438-4.685-43.659 37.027-55.058l31.279-83.342a1 1 0 1 1 1.872.704l-31.46 83.821a1.003 1.003 0 0 1-.68.616c-17.001 4.503-28.234 14.76-33.39 30.49-3.865 11.797-2.674 22.426-2.661 22.532a1.002 1.002 0 0 1-.995 1.117" fill="#09293D"/><path d="M83.256 403.524c-.515 0-1.018.048-1.525.077-3.946 18.243 2.951 36.38 16.2 47.775 6.94-4.708 11.501-12.659 11.501-21.676 0-14.456-11.719-26.176-26.176-26.176" fill="#FFD43B"/><path d="M291.303 198.133s-22.293-18.915-19.604-73.813l-31.902-.085L246 198.133h45.302z" fill="#09293D"/><path d="M214.49 161.176l31.51 1.59 8.227 51.501h-33.862l-5.875-53.09zm5.875 53.091h33.862s4.77 53.521-5.008 54.585c-10.53 1.145-28.854-54.585-28.854-54.585z" fill="#C37362"/><path fill="#09293D" d="M251.723 198.133l-20.34-28.407-15.902-8.867 32.088 10.544z"/><path d="M263.168 113.172s9.537 53.408 0 61.038c-9.538 7.63-47.687-11.444-47.687-11.444l-8.671-49.594h56.358z" fill="#C37362"/><path d="M182.428 157.282s-2.552-55.555 33.054-66.364c35.606-10.808 61.36 6.98 61.356 33.182.636.516-66.675 0-66.675 0l5.319 38.666c4.768 16.213 18.12 35.367 18.12 35.367h-51.174v-40.851z" fill="#09293D"/><path d="M215.481 162.766s-20.982-5.723-19.075-13.353c1.908-7.63 20.148-1.55 20.148-1.55l-1.073 14.903zm16.571-38.531v-11.063l6.054 12.6z" fill="#C37362"/><path d="M254.226 148.864a1 1 0 0 1-.935-.646l-5.007-13.233a.998.998 0 0 1 .581-1.289.998.998 0 0 1 1.29.581l5.006 13.233a1 1 0 0 1-.935 1.354" fill="#09293D"/><path d="M210.162 159.67a3.354 3.354 0 1 1-6.707 0 3.354 3.354 0 0 1 6.707 0" fill="#FFD43B"/><path d="M238.025 161.018c-2.026 0-3.374-1.165-4.864-2.701a1 1 0 1 1 1.435-1.392c2.076 2.138 3.077 2.76 6.141 1.35a1 1 0 0 1 .836 1.817c-1.408.649-2.559.926-3.548.926m-34.57-65.651c-.153 0-.306-.036-.447-.106l-3.14-1.57a1 1 0 0 1 .894-1.789l1.827.913.523-5.863a1 1 0 0 1 1.992.178l-.653 7.325a.999.999 0 0 1-.996.912" fill="#09293D"/><path d="M204.359 143.701a1 1 0 0 1-.968-.755l-1.61-6.364-2.118 5.735a1 1 0 0 1-1.91-.115l-1.477-6.198-3.452 6.44a1 1 0 0 1-1.851-.227l-1.475-5.839-1.713 5.523a1 1 0 1 1-1.91-.592l2.765-8.92a1.02 1.02 0 0 1 .982-.704c.447.012.833.32.943.754l1.715 6.785 3.477-6.485a1.002 1.002 0 0 1 1.854.24l1.32 5.545 2.09-5.659c.153-.41.564-.673.992-.652a.998.998 0 0 1 .916.753l2.4 9.49a1 1 0 0 1-.97 1.245" fill="#195472"/><path d="M288.74 432.286a1 1 0 0 1-.997-.931l-6.62-94.692a1.003 1.003 0 0 1 .196-.67l19.513-26.137-3.585-9.695a.999.999 0 0 1 .59-1.284.996.996 0 0 1 1.286.592l3.774 10.204a1 1 0 0 1-.137.945l-19.616 26.275 6.595 94.325a1.002 1.002 0 0 1-.928 1.067h-.071" fill="#09293D"/><path d="M263.253 316.57c0 2.101-2.123 3.805-4.741 3.805-2.618 0-4.741-1.704-4.741-3.806 0-2.102 2.123-3.805 4.74-3.805 2.619 0 4.742 1.703 4.742 3.805m-38.749-35.993c0 1.247-1.26 2.259-2.815 2.259s-2.815-1.012-2.815-2.259c0-1.248 1.26-2.26 2.815-2.26s2.815 1.012 2.815 2.26m60.832 2.55c0 1.248-1.26 2.26-2.815 2.26s-2.815-1.012-2.815-2.26c0-1.248 1.26-2.26 2.815-2.26s2.815 1.012 2.815 2.26" fill="#FFF"/><path d="M157.101 409.173a1 1 0 0 1-.872-.51l-5.955-10.545a.999.999 0 1 1 1.741-.983l5.956 10.546a1 1 0 0 1-.87 1.492m164.176 33.337a1 1 0 0 1-.449-1.893l11.592-5.815a1 1 0 0 1 .896 1.787l-11.592 5.815a.982.982 0 0 1-.447.106m-8.62-7.174a1 1 0 0 1-1-1v-11.633a1 1 0 0 1 2 0v11.633a1 1 0 0 1-1 1m5.364 1.359a1 1 0 0 1-.721-1.693l6.862-7.129a1 1 0 1 1 1.442 1.386l-6.862 7.13a.999.999 0 0 1-.72.306m-57.841-298.92a1.522 1.522 0 1 1-3.044 0 1.522 1.522 0 0 1 3.044 0m-28.001 0a1.522 1.522 0 1 1-3.044 0 1.522 1.522 0 0 1 3.044 0" fill="#09293D"/><path d="M260.181 137.775a1.522 1.522 0 1 1-3.044 0 1.522 1.522 0 0 1 3.044 0m-28.001 0a1.522 1.522 0 1 1-3.044 0 1.522 1.522 0 0 1 3.044 0m1.795-5.563a.996.996 0 0 1-.754-.342c-.779-.891-1.553-1.356-2.3-1.382-.821-.031-1.726.454-2.707 1.432a1.001 1.001 0 0 1-1.412-1.416c1.388-1.384 2.779-2.06 4.19-2.015 1.32.046 2.578.74 3.734 2.065a1 1 0 0 1-.751 1.658m28.256 0a.996.996 0 0 1-.753-.342c-.779-.891-1.553-1.356-2.3-1.382-.814-.031-1.727.454-2.708 1.432a1.001 1.001 0 0 1-1.412-1.416c1.39-1.384 2.783-2.06 4.19-2.015 1.321.046 2.578.74 3.735 2.065a1 1 0 0 1-.752 1.658" fill="#09293D"/><path d="M469.04 410.843H334.864c0-10.626 8.614-19.24 19.24-19.24h52.919l55.594-142.731a14.795 14.795 0 0 1 13.787-9.426h211.763c5.808 0 9.799 5.838 7.692 11.249L633.48 410.843H469.04z" fill="url(#g)" transform="translate(0 52.22)"/><g transform="translate(0 461.22)"><mask id="i" fill="#fff"><use xlink:href="#h"/></mask><path d="M695.42 3H1a1 1 0 1 1 0-2h694.42a1 1 0 1 1 0 2" fill="#09293D" mask="url(#i)"/></g></g></g></svg>