<svg width="536" height="514" xmlns="http://www.w3.org/2000/svg" xmlns:xlink="http://www.w3.org/1999/xlink"><defs><path d="M76.423 2.08c-7.512.643-14.582 3.752-20.166 8.817C37.516 27.9-6.103 73.387 1.5 96.774c5.985 18.411 37.2 18.903 59.996 16.633l.502 15.007h112.073l-1.207-66.993-.051-.246c22.06 1.351 51.968-.388 57.909-18.665 9.635-29.64-49.838-38.862-49.838-38.862C171.857 1.414 148.82.423 125.351.423c-18.137 0-36.529.592-48.928 1.656" id="a"/><path d="M76.423 2.08c-7.512.643-14.582 3.752-20.166 8.817C37.516 27.9-6.103 73.387 1.5 96.774c5.985 18.411 37.2 18.903 59.996 16.633l.502 15.007h112.073l-1.207-66.993-.051-.246c22.06 1.351 51.968-.388 57.909-18.665 9.635-29.64-49.838-38.862-49.838-38.862C171.857 1.414 148.82.423 125.351.423c-18.137 0-36.529.592-48.928 1.656" id="c"/></defs><g fill="none" fill-rule="evenodd"><path d="M430.518 501.677c0 6.617-55.499 11.982-123.96 11.982-68.46 0-123.957-5.365-123.957-11.982 0-6.617 55.498-11.982 123.957-11.982 68.461 0 123.96 5.365 123.96 11.982" fill="#E6E6E6"/><path d="M313.31 38.394h-29.426a1.549 1.549 0 0 1 0-3.096h29.426a1.548 1.548 0 1 1 0 3.096m54.495 187.776H164.142a1.548 1.548 0 1 1 0-3.096h203.663a1.548 1.548 0 1 1 0 3.096m-49.698 196.677h-119.58a1.548 1.548 0 1 1 0-3.096h119.58a1.549 1.549 0 1 1 0 3.096" fill="#FFD43B"/><path fill="#132042" d="M369.339 261.123l1.77-5.43 7.148.111.578 2.149 17.96 1.465 9.871 10.37-2.965 1.635-12.953-2.152-20.924-.336z"/><path d="M375.527 269.027l-.1-1.62a6.733 6.733 0 0 0-6.088-6.283l-6.534-.36.56 9.025 6.459-.854 5.703.092z" fill="#FEB07D"/><path d="M381.883 267.15a.957.957 0 1 1-1.914 0 .957.957 0 0 1 1.914 0m4.903 0a.957.957 0 1 1-1.914 0 .957.957 0 0 1 1.914 0" fill="#FFF"/><path d="M380.772 271.065c-1.133 2.001-2.524 4.944-2.117 6.347.082.284.235.468.48.58.234.106.35.062.44 0 .874-.594 1.2-3.979 1.197-6.927m-1.388 8.023c-.2 0-.427-.043-.676-.157-.517-.234-.879-.66-1.044-1.231-.758-2.616 2.748-8.084 3.151-8.698a.517.517 0 0 1 .946.257c.067 1.372.308 8.288-1.607 9.588a1.36 1.36 0 0 1-.77.241" fill="#132042"/><path d="M382.821 270.334c1.072 2.034 2.797 4.797 4.2 5.213.284.084.52.054.746-.091.213-.138.24-.26.237-.369-.027-1.057-2.7-3.161-5.183-4.753m4.495 6.29c-.194 0-.39-.03-.59-.088-2.612-.776-5.32-6.68-5.619-7.352a.515.515 0 0 1 .728-.658c1.192.685 7.141 4.221 7.201 6.535.01.36-.106.873-.71 1.262-.31.2-.652.301-1.01.301" fill="#132042"/><path fill="#FEB07D" d="M299.594 467.677l.765 6.497h7.828l.451-6.497z"/><path fill="#132042" d="M300.359 474.174l-5.312 2.105.554 7.124 2.18.444 2.578 17.83h16.366l-.627-.886-6.278-5.759-1.633-20.858z"/><path d="M308.187 474.174h-7.829a6.733 6.733 0 0 0 6.652 5.685h1.622l-.445-5.685z" fill="#FEB07D"/><path d="M307.914 483.854a1.13 1.13 0 1 1-2.259-.002 1.13 1.13 0 0 1 2.259.002" fill="#FFF"/><path d="M309.898 484.83c1.196 1.963 3.089 4.612 4.514 4.939.289.069.523.023.74-.137.205-.151.225-.274.216-.382-.094-1.053-2.893-2.987-5.47-4.42m4.757 6c-.154 0-.314-.018-.473-.056-2.655-.61-5.726-6.335-6.066-6.986a.515.515 0 0 1 .685-.702c1.233.61 7.39 3.767 7.594 6.073.032.36-.052.876-.63 1.303a1.84 1.84 0 0 1-1.11.368" fill="#132042"/><path d="M310.256 482.685c2.29.051 5.551-.107 6.597-1.129.213-.206.302-.428.286-.698-.017-.252-.11-.335-.207-.386-.93-.486-4.073.82-6.676 2.213m.842 1.047a32.39 32.39 0 0 1-2.681-.11.517.517 0 0 1-.22-.956c1.178-.708 7.16-4.186 9.214-3.108.32.167.711.518.757 1.235.037.567-.168 1.086-.593 1.502-1.223 1.193-4.226 1.437-6.477 1.437" fill="#132042"/><path d="M276.527 228.888l12.848 81.276c-4.102 40.47-.175 123.028 10.358 157.513h37.86V182.489h-61.066v46.399z" fill="#5656CE"/><path d="M342.479 438.765h-48.743c1.49 10.48 3.44 20.196 5.997 28.912h42.746c2.626-4.74 2.894-9.387 0-13.91 3.012-4.492 2.494-9.58 0-15.002" fill="#38D9A9"/><path d="M225.522 182.489s-33.28 68.831-35.776 73.792c-3.245 6.451-5.012 13.592-3.281 20.69 2.962 12.152 13.852 20.703 26.363 20.703h154.976l-4.572-37.068c-37.714-6.499-65.958-12.378-96.15-10.117l41.556-68h-83.116z" fill="#5656CE"/><path d="M337.593 439.797h-31.707a1.031 1.031 0 1 1 0-2.064h31.707a1.03 1.03 0 1 1 0 2.064m0-126.088h-11.432a1.03 1.03 0 1 1 0-2.064h11.432a1.03 1.03 0 1 1 0 2.064m0-15.002h-50.191a1.03 1.03 0 1 1 0-2.064h50.191a1.03 1.03 0 1 1 0 2.064m.002-41.327c-.076 0-.153-.009-.23-.026-25.427-5.745-57.176-6.19-57.493-6.194a1.03 1.03 0 0 1-1.013-.918l-3.076-27.534-7.004-3.564a1.031 1.031 0 0 1-.564-.92v-25.327a1.032 1.032 0 0 1 2.064 0v24.694l6.936 3.53c.31.157.52.46.559.805l3.036 27.186c5.413.121 33.8.985 57.011 6.228.556.126.904.679.78 1.235-.11.479-.535.804-1.006.804M189.88 286.05a1.032 1.032 0 0 1-.622-1.857l14.821-11.166a1.032 1.032 0 0 1 1.242 1.648l-14.82 11.167a1.03 1.03 0 0 1-.62.208" fill="#FFF"/><path d="M363.233 260.606l-22.793-3.974 2.47 47.403c4.463 1.462 8.711 1.76 12.58 0 4.547 1.607 9.077 1.621 13.586 0l-5.843-43.429z" fill="#38D9A9"/><path fill="#132042" d="M225.522 182.489h112.071v-9.443H225.522z"/><path d="M344.407 48.28c-16.002-3.962-76.018-4.013-104.461-1.57a34.39 34.39 0 0 0-20.166 8.818c-18.741 17.003-62.36 62.49-54.757 85.878 5.984 18.41 37.2 18.902 59.996 16.633-1.943 8.468-2.727 15.032.503 15.007h112.071c9.078-1.26 1.379-39.81-1.207-66.994l-.05-.246c22.06 1.352 51.967-.387 57.909-18.664 9.634-29.64-49.838-38.863-49.838-38.863" fill="#70E5A8"/><g transform="translate(163.523 44.631)"><mask id="b" fill="#fff"><use xlink:href="#a"/></mask><path d="M24.121 96.774c0 12.491-10.128 22.616-22.621 22.616-12.494 0-22.621-10.125-22.621-22.616 0-12.49 10.127-22.616 22.62-22.616 12.494 0 22.622 10.126 22.622 22.616" fill="#8FFFC2" mask="url(#b)"/></g><g transform="translate(163.523 44.631)"><mask id="d" fill="#fff"><use xlink:href="#c"/></mask><path d="M261.128 37.943c0 12.492-10.127 22.617-22.621 22.617-12.494 0-22.621-10.125-22.621-22.617 0-12.49 10.127-22.616 22.62-22.616 12.495 0 22.622 10.126 22.622 22.616" fill="#8FFFC2" mask="url(#d)"/></g><path d="M323.698 214.004c-5.88 0-10.512-1.785-13.768-5.304-5.738-6.206-5.081-15.491-5.05-15.883.043-.567.53-.995 1.107-.948.568.044.993.54.95 1.107-.007.088-.608 8.8 4.518 14.332 2.849 3.074 6.969 4.633 12.243 4.633a1.03 1.03 0 1 1 0 2.063m-15.236 275.691a1.129 1.129 0 1 1-2.258 0 1.129 1.129 0 0 1 2.258 0" fill="#FFF"/><path fill="#132042" d="M272.878 65.435l-10.818 6.799 3.784 12.554 12.224-7.05z"/><path fill="#132042" d="M267.27 190.022V78.307l-47.447 101.145 18.437 29.002z"/><path fill="#38D9A9" d="M224.059 158.131l21.52-1.425 2.205-34.976-15.054.052z"/><path fill="#38D9A9" d="M247.784 121.73h11.542l-.355 42.291h-13.854z"/><path d="M309.779 100.72c0 14.298-11.593 25.888-25.894 25.888-14.3 0-25.894-11.59-25.894-25.887 0-14.298 11.593-25.887 25.894-25.887 14.301 0 25.894 11.59 25.894 25.887" fill="#FFD43B"/><path d="M259.323 121.782s1.848.235 3.688.564c1.84.329 3.677.722 3.677.722s.819-.774 2.185-1.464c1.366-.691 3.28-1.322 5.464-1.005 2.183.317 3.76 1.39 4.794 2.349 1.033.958 1.52 1.843 1.52 1.843s2.443-.08 5.719-.446c1.638-.182 3.487-.463 5.338-.764 1.85-.301 3.7-.599 5.34-.815 3.28-.436 5.727-.604 5.727-.604 0 1.1-.4 2.137-1.072 2.965a5.23 5.23 0 0 1-2.708 1.756s-.645.18-1.775.513c-1.13.332-2.746.825-4.685 1.423-.97.3-2.02.614-3.13.929a88.545 88.545 0 0 1-3.484.916c-1.206.29-2.45.55-3.71.77-1.26.218-2.535.395-3.808.522-1.271.128-2.54.219-3.787.28-1.246.062-2.471.1-3.656.128-1.184.027-2.329.05-3.414.077-1.086.027-2.113.062-3.062.112-1.9.101-3.486.245-4.6.386-1.113.14-.653.084-.653.084l.092-11.241zM311.78 81.88s-2.726-.176-5.497-.586c-2.771-.411-5.559-1.002-5.559-1.002s-.86.728-2.284 1.353c-.713.313-1.565.606-2.52.776a9.617 9.617 0 0 1-3.14.047 9.69 9.69 0 0 1-4.891-2.253c-1.035-.887-1.511-1.7-1.511-1.7s-2.416.097-5.601.464c-1.592.184-3.371.468-5.148.775-1.776.307-3.554.611-5.144.837-3.18.45-5.59.646-5.59.646.002-1.097.4-2.13 1.068-2.954a5.124 5.124 0 0 1 2.672-1.73s.632-.172 1.734-.488a542.96 542.96 0 0 0 4.552-1.347c.94-.28 1.96-.577 3.04-.875a85.326 85.326 0 0 1 3.407-.866 57.766 57.766 0 0 1 7.5-1.236 76.723 76.723 0 0 1 3.862-.277c1.278-.061 2.54-.1 3.76-.132 1.22-.03 2.4-.06 3.516-.099a71.577 71.577 0 0 0 3.136-.166 61.307 61.307 0 0 0 4.648-.528c1.114-.189 1.753-.293 1.753-.293l2.237 11.635z" fill="#FEB07D"/><path fill="#38D9A9" d="M306.207 70.246l5.894 42.888 12.008 1.152-8.952-44.04z"/><path d="M221.469 122.814a1.033 1.033 0 0 1-1-1.295l6.923-26.382c.144-.55.705-.882 1.26-.735.552.144.882.708.737 1.259l-6.922 26.383c-.122.463-.54.77-.998.77m127.933-51.536h-34.244a1.032 1.032 0 1 1 0-2.064h34.244a1.031 1.031 0 1 1 0 2.064" fill="#FFF"/><path d="M244.239 122.814h-31.171c-.24 0-.47-.082-.654-.234l-4.093-3.35a1.033 1.033 0 0 1 1.308-1.597l3.807 3.118h30.803a1.032 1.032 0 1 1 0 2.063" fill="#FFF"/><path d="M213.067 126.755c-.57 0-1.032-.462-1.032-1.032v-3.94a1.032 1.032 0 0 1 2.064 0v3.94c0 .57-.462 1.032-1.032 1.032M353.111 74.74a1.03 1.03 0 0 1-.656-.236l-4.198-3.463a1.034 1.034 0 0 1-.096-1.502l3.254-3.463a1.031 1.031 0 1 1 1.504 1.414l-2.5 2.66 3.35 2.762a1.032 1.032 0 0 1-.658 1.828M291.1 183.52c-.57 0-1.032-.461-1.032-1.031v-9.444a1.032 1.032 0 0 1 2.064 0v9.444c0 .57-.461 1.032-1.032 1.032m26.206-.001c-.57 0-1.032-.461-1.032-1.031v-9.444a1.032 1.032 0 0 1 2.065 0v9.444c0 .57-.461 1.032-1.033 1.032" fill="#FFF"/><path d="M250.818 148.401a1.818 1.818 0 1 1 3.548.796 1.818 1.818 0 0 1-3.548-.796m3.592 8.304a1.818 1.818 0 1 1-3.635 0 1.818 1.818 0 0 1 3.635 0m61.006-48.385a1.819 1.819 0 1 1 3.55.796 1.819 1.819 0 0 1-3.55-.797m-1.819-11.699a1.818 1.818 0 1 1 3.549.796 1.818 1.818 0 0 1-3.549-.796" fill="#132042"/><path fill="#FEB07D" d="M272.878 65.435l20.382-20.271-.197-13.107 3.342-18.375-19.778-3.004-3.836 22.921z"/><path fill="#FEB07D" d="M274.94 9.899L267.15 21.8l4.294.757-6.29 9.201 17.828 3.143 4.224-22.84z"/><path d="M274.403.953c1.782-.782 10.084.845 16.828 2.371 6.436 1.457 10.221 8.308 7.76 14.43-2.096 5.212-5.435 9.283-5.929 14.303l-4.569-.805a1.487 1.487 0 0 1-1.207-1.723l1.968-11.157c-6.436-3.034-15.94-7.678-16.365-8.835-.644-1.758-1.589-7.223 1.514-8.584M272.79 33.1l10.556 1.86-10.537 5.332z" fill="#132042"/><path d="M285.726 27.753l4.036.71a1.715 1.715 0 0 0 1.98-1.384l.712-4.036a1.715 1.715 0 0 0-1.387-1.98l-4.036-.712a1.714 1.714 0 0 0-1.98 1.386l-.712 4.036a1.714 1.714 0 0 0 1.387 1.98" fill="#FEB07D"/><path d="M288.398 26.927a2.55 2.55 0 0 1-.44-.039.516.516 0 0 1 .18-1.015c.805.141 1.581-.4 1.723-1.208.07-.388-.02-.782-.248-1.109a1.48 1.48 0 0 0-.958-.614c-.8-.138-1.58.4-1.723 1.207a.516.516 0 0 1-1.017-.178 2.527 2.527 0 0 1 2.92-2.044c.66.116 1.237.484 1.623 1.037a2.5 2.5 0 0 1 .42 1.882 2.523 2.523 0 0 1-2.48 2.081" fill="#FA5252"/><path d="M272.656 16.165a2.84 2.84 0 0 0 2.302 3.285 2.827 2.827 0 0 0 2.12-.47 2.838 2.838 0 0 0-1.135-5.116 2.803 2.803 0 0 0-2.12.471 2.816 2.816 0 0 0-1.167 1.83m2.805 5.393a4.906 4.906 0 0 1-4.837-5.752 4.868 4.868 0 0 1 2.015-3.162 4.87 4.87 0 0 1 3.662-.812 4.905 4.905 0 0 1 3.975 5.676 4.864 4.864 0 0 1-2.015 3.163 4.868 4.868 0 0 1-2.8.887" fill="#132042"/><path d="M289.17 19.885c-.059 0-.12-.006-.18-.016l-9.871-1.74a1.033 1.033 0 0 1 .359-2.032l9.87 1.74a1.032 1.032 0 0 1-.178 2.048M305.458 8c-.02 0-.04 0-.06-.002l-4.3-.247a1.033 1.033 0 0 1-.908-1.389l1.483-4.003a1.033 1.033 0 0 1 1.326-.609c.535.198.808.792.609 1.325l-.998 2.695 2.907.168A1.031 1.031 0 0 1 305.458 8" fill="#132042"/><path d="M388.002 103.569H214.917a1.548 1.548 0 1 1 0-3.096h173.085a1.548 1.548 0 1 1 0 3.096M348.29 351.706h-77.022a1.548 1.548 0 1 1 0-3.096h77.022a1.548 1.548 0 1 1 0 3.096" fill="#FFD43B"/><path d="M283.598 83.51c9.453 0 17.016 7.56 17.016 17.01 0 9.45-7.563 17.01-17.016 17.01a16.942 16.942 0 0 1-17.016-17.01c0-9.45 7.563-17.01 17.016-17.01zm5.294 16.254c1.134-.756 1.89-1.89 1.89-3.402-.378-2.646-2.268-3.402-4.915-3.402v-3.4h-2.27v3.401h-1.512V89.56h-2.268v3.401h-4.538v2.268h1.513c.756 0 1.134.378 1.134.756v9.45c0 .378-.378.756-.756.756h-1.513l-.378 2.646h4.159v3.402h2.27v-3.402h1.512v3.402h2.269v-3.402c3.403-.378 6.05-1.134 6.428-4.536.378-2.646-1.135-3.78-3.025-4.158v-.378zm-7.185-4.536c1.135 0 4.916-.378 4.916 2.268 0 2.268-3.781 2.268-4.916 2.268v-4.536zm0 10.962v-4.536c1.513 0 6.05-.378 6.05 2.268s-4.537 2.268-6.05 2.268z" fill="#132042"/><path d="M388 103.569a1.548 1.548 0 0 1-.14-3.09c91.992-8.473 101.514-20.203 101.338-24.853-.597-15.751-95.95-35.933-175.913-37.233a1.549 1.549 0 0 1 .05-3.095c69.84 1.135 178.151 18.913 178.956 40.21.47 12.38-33.597 21.555-104.147 28.054a1.552 1.552 0 0 1-.143.007M164.142 226.17c-50.057 0-92.184-5.956-121.825-17.224C15.164 198.625.192 184.386.159 168.855c-.071-32.486 67.102-67.742 214.751-68.382h.007a1.549 1.549 0 0 1 .007 3.096C75.87 104.173 3.186 136.865 3.256 168.848c.03 14.158 14.293 27.372 40.16 37.205 29.295 11.135 71.041 17.021 120.726 17.021a1.548 1.548 0 1 1 0 3.096m186.87 125.536a1.549 1.549 0 0 1 0-3.096c58.751 0 106.71-6.313 138.694-18.256 27.255-10.178 42.264-24.228 42.264-39.563 0-15.816-15.828-31.797-43.426-43.844-30.691-13.398-73.571-20.777-120.74-20.777a1.548 1.548 0 1 1 0-3.096c104.7 0 167.262 34.432 167.262 67.717 0 16.72-15.723 31.8-44.276 42.463-32.328 12.07-80.661 18.452-139.778 18.452m-152.485 71.141c-28.075 0-51.123-2.692-66.65-7.783-18.568-6.088-22.465-14.087-22.465-19.724 0-11.427 15.774-22.977 43.276-31.69 21.66-6.86 60.252-15.04 121.108-15.04a1.547 1.547 0 1 1 0 3.096c-105.238 0-161.288 25.34-161.288 43.634 0 6.522 7.221 12.483 20.334 16.783 15.22 4.99 37.934 7.628 65.685 7.628a1.549 1.549 0 1 1 0 3.096" fill="#FFD43B"/><path d="M115.034 222.543c0 4.653-6.21 8.424-13.87 8.424-7.661 0-13.871-3.771-13.871-8.424s6.21-8.425 13.87-8.425c7.661 0 13.871 3.772 13.871 8.425M499.862 74.94c0 5.032-4.08 9.112-9.114 9.112a9.112 9.112 0 1 1 0-18.223c5.033 0 9.114 4.08 9.114 9.111M258.58 421.299a7.77 7.77 0 0 1-7.772 7.77 7.772 7.772 0 1 1 0-15.541 7.772 7.772 0 0 1 7.773 7.77M108.165 207.49c-.04 0-.08-.001-.121-.004-56.802-4.386-94.556-20.21-96.182-40.315-1.122-13.876 15.336-25.989 45.155-33.234a1.547 1.547 0 1 1 .73 3.008c-27.771 6.747-43.77 17.954-42.799 29.976 1.226 15.163 30.562 32.632 93.335 37.478a1.549 1.549 0 0 1-.118 3.091" fill="#FFD43B"/><path d="M488.747 59.336c-.193 0-.388-.036-.577-.112-19.904-7.985-32.317-11.126-32.44-11.157a1.546 1.546 0 0 1-1.126-1.877 1.544 1.544 0 0 1 1.878-1.126c.124.031 12.72 3.215 32.842 11.286a1.55 1.55 0 0 1-.577 2.986M316.725 361.674h-42.93a1.548 1.548 0 1 1 0-3.096h42.93a1.549 1.549 0 1 1 0 3.096" fill="#FFF"/><path d="M503.392 339.617c1.104-2.559 1.347-5.259.706-7.827l-19.268 3.87 12.968 10.743c2.555-1.883 4.482-4.22 5.594-6.786m-20.298 13.75c4.528-.908 8.734-2.736 12.185-5.3l-16.988-13.958 25.127-5.045c-2.634-10.56-16.147-16.972-29.927-14.206-13.781 2.767-22.963 13.733-20.329 24.295 2.634 10.561 16.15 16.98 29.932 14.214m-11.566-46.378c19.54-3.922 38.423 5.038 42.158 20.015 3.736 14.986-9.089 30.31-28.63 34.233-19.543 3.922-38.412-5.04-42.149-20.025-3.735-14.978 9.08-30.3 28.62-34.223" fill="#FFD43B"/><path d="M504.099 331.79c.64 2.568.396 5.269-.707 7.827-1.113 2.567-3.039 4.903-5.594 6.786l-12.968-10.744 19.269-3.868z" fill="#12B886"/><path d="M473.49 314.858c13.781-2.766 27.295 3.645 29.929 14.206l-25.129 5.045 16.989 13.958c-3.451 2.564-7.658 4.392-12.186 5.3-13.78 2.766-27.297-3.653-29.93-14.214-2.634-10.562 6.547-21.528 20.327-24.295" fill="#FFF"/><path d="M110.07 124.368l-5.577 5.446v-5.446h-.31c-2.72 0-4.924-2.224-4.924-4.969V98.874c0-2.744 2.205-4.969 4.925-4.969h28.91c2.72 0 4.924 2.225 4.924 4.97v20.524c0 2.745-2.205 4.97-4.925 4.97h-23.022z" fill="#FFD43B"/><path d="M392.856 393.307c-.396 0-.793-.151-1.095-.453l-6.031-6.032a1.548 1.548 0 0 1 2.189-2.188l6.031 6.031a1.547 1.547 0 0 1-1.094 2.642m-18.589-255.721a1.55 1.55 0 0 1-.603-2.974c2.055-.868 7.746-3.562 9.378-5.57a1.549 1.549 0 0 1 2.404 1.953c-2.411 2.965-9.749 6.119-10.577 6.468-.197.084-.4.123-.602.123" fill="#FFF"/><ellipse fill="#FFF" cx="145.108" cy="369.005" rx="25.051" ry="19.372"/><path d="M146.053 347.743c-14.856 0-26.942 9.538-26.942 21.262 0 11.723 12.086 21.261 26.942 21.261s26.942-9.538 26.942-21.261c0-11.724-12.086-21.262-26.942-21.262zm.473 4.725c11.484.079 21.742 7.465 21.742 16.537 0 9.071-10.258 16.457-21.742 16.536v-33.073z" fill="#FFD43B" fill-rule="nonzero"/><g fill="#132042" font-family="WhitneyHTF-Bold, Whitney HTF" font-weight="bold"><text font-size="20" transform="translate(457 260)"><tspan x="0" y="19">10%</tspan></text><text font-size="14" transform="translate(457 260)"><tspan x="0" y="35">HAVE</tspan></text></g><g fill="#132042" font-family="WhitneyHTF-Bold, Whitney HTF" font-weight="bold"><text font-size="20" transform="translate(101 302)"><tspan x="0" y="19">50%</tspan></text><text font-size="14" transform="translate(101 302)"><tspan x="0" y="35">DON’T TRUST</tspan></text></g><g fill="#132042" font-family="WhitneyHTF-Bold, Whitney HTF" font-weight="bold"><text font-size="20" transform="translate(97 47)"><tspan x="0" y="19">80%</tspan></text><text font-size="14" transform="translate(97 47)"><tspan x="0" y="35">HEARD</tspan></text></g></g></svg>